<?xml version="1.0" standalone="no"?>
<!DOCTYPE svg PUBLIC "-//W3C//DTD SVG 20010904//EN"
 "http://www.w3.org/TR/2001/REC-SVG-20010904/DTD/svg10.dtd">
<svg version="1.0" xmlns="http://www.w3.org/2000/svg"
 width="900.000000pt" height="900.000000pt" viewBox="0 0 900.000000 900.000000"
 preserveAspectRatio="xMidYMid meet">
<metadata>
Created by potrace 1.14, written by Peter Selinger 2001-2017
</metadata>
<g transform="translate(0.000000,900.000000) scale(0.100000,-0.100000)"
fill="#000000" stroke="none">
<path d="M5558 8961 c23 -21 42 -42 42 -46 0 -17 70 -75 90 -75 11 0 20 -5 20
-10 0 -6 11 -15 24 -21 13 -6 27 -20 29 -30 3 -11 12 -19 21 -19 9 0 16 -8 16
-19 0 -30 43 -121 57 -121 7 0 15 -11 19 -25 3 -14 13 -25 23 -25 24 0 62 -30
55 -42 -4 -6 -2 -8 4 -4 17 10 92 -69 97 -104 2 -12 91 -93 117 -106 15 -8 28
-19 28 -24 0 -6 10 -10 22 -10 12 0 18 -3 15 -6 -9 -10 12 -44 27 -44 8 0 19
-6 25 -14 18 -22 341 -15 376 8 15 10 46 16 82 16 55 1 57 2 38 17 -19 15 -19
15 9 9 68 -16 86 -18 86 -9 0 6 11 8 25 5 28 -5 24 -22 -5 -22 -15 0 -19 -6
-18 -25 2 -23 18 -37 18 -15 0 12 50 13 69 1 19 -12 6 -76 -22 -102 -21 -19
-21 -21 -5 -33 10 -7 15 -16 11 -19 -3 -4 1 -7 10 -7 10 0 17 5 17 10 0 6 14
10 31 10 23 0 30 -4 25 -15 -3 -8 4 -21 17 -30 18 -12 19 -15 4 -15 -9 0 -17
-4 -17 -10 0 -5 -7 -10 -15 -10 -8 0 -15 -4 -15 -10 0 -14 68 -12 72 2 3 9 6
9 12 0 4 -7 2 -12 -3 -12 -6 0 -11 -20 -11 -45 0 -33 -5 -50 -20 -62 -28 -24
-25 -46 9 -66 36 -21 51 -22 51 -2 0 11 11 15 39 15 32 0 39 4 43 23 8 45 -1
57 -43 57 l-39 0 1 53 c0 28 3 46 6 40 2 -7 20 -13 38 -13 34 0 34 -1 41 -50
6 -44 10 -50 30 -50 12 0 26 -4 29 -10 3 -5 15 -10 26 -10 23 0 25 -13 4 -34
-8 -8 -15 -31 -15 -50 0 -35 1 -36 36 -36 19 0 33 3 30 8 -2 4 3 16 11 27 15
20 15 20 8 -2 -6 -22 -3 -23 47 -24 29 0 47 -3 41 -6 -19 -7 -15 -36 7 -56 17
-15 20 -15 20 -1 0 8 5 12 10 9 6 -3 10 -24 10 -45 0 -21 -4 -42 -10 -45 -5
-3 -10 1 -10 9 0 14 -3 14 -20 4 -11 -7 -20 -18 -20 -25 0 -7 -9 -13 -21 -13
-18 0 -20 -5 -18 -44 3 -47 -13 -78 -39 -74 -8 2 -19 -6 -26 -17 -6 -11 -14
-22 -17 -25 -3 -3 -9 -22 -13 -42 -7 -36 -9 -38 -44 -38 -21 0 -43 5 -50 12
-9 9 -12 -2 -12 -50 l0 -62 -49 0 c-42 0 -53 -4 -74 -30 -22 -25 -33 -30 -71
-30 -25 0 -46 -4 -46 -10 0 -5 -18 -19 -40 -30 -22 -11 -40 -25 -40 -30 0 -6
-18 -10 -40 -10 -22 0 -40 5 -40 10 0 7 -6 7 -19 1 -10 -6 -33 -12 -50 -13
-26 -2 -37 -11 -46 -38 -12 -35 -19 -41 -41 -36 -32 8 -184 -5 -184 -15 0 -5
14 -9 31 -9 16 0 28 -4 24 -9 -3 -5 -18 -9 -34 -9 -36 1 -52 -9 -44 -27 4 -11
-2 -15 -21 -15 -24 0 -26 -4 -26 -40 0 -22 -4 -40 -10 -40 -5 0 -7 -6 -4 -12
7 -19 104 -21 104 -2 0 9 11 14 35 14 l35 0 -18 -37 c-9 -21 -21 -41 -25 -44
-10 -7 -4 -166 7 -176 4 -4 16 3 26 17 l20 25 0 -41 c0 -22 -5 -45 -12 -52 -9
-9 -9 -12 0 -12 7 0 12 -4 12 -10 0 -5 -18 -10 -41 -10 -33 0 -40 3 -35 15 4
12 0 14 -19 9 -16 -4 -25 -2 -25 6 0 7 -8 10 -19 7 -11 -3 -28 1 -38 7 -10 7
-45 18 -78 25 -63 14 -95 28 -108 49 -4 6 -12 12 -17 12 -9 0 -70 58 -70 67 0
2 -18 23 -40 46 -89 92 -88 91 -80 112 5 11 9 35 9 53 1 31 0 32 -39 32 -30 0
-48 7 -72 30 l-33 29 33 13 c40 15 40 21 1 35 -17 7 -28 16 -25 21 3 6 -1 15
-9 22 -8 7 -15 19 -15 26 0 8 -4 14 -10 14 -5 0 -17 15 -26 33 -9 17 -23 36
-30 40 -8 4 -14 12 -14 18 0 15 -72 89 -81 83 -5 -2 -48 -7 -96 -9 -127 -7
-203 -17 -203 -26 0 -5 8 -9 18 -9 9 0 24 -5 32 -10 11 -7 4 -10 -27 -10 -29
0 -43 4 -43 13 0 30 -178 56 -260 38 -91 -20 -140 -35 -140 -42 0 -16 -90 -29
-197 -30 -40 0 -43 -2 -43 -28 0 -24 -5 -30 -32 -35 -18 -3 -55 -6 -83 -6 -31
0 -65 -7 -89 -19 -29 -15 -57 -20 -114 -19 -45 0 -78 -4 -80 -10 -2 -7 -14 -7
-35 -1 -43 12 -47 12 -47 -6 0 -8 5 -15 12 -15 6 0 8 -3 4 -7 -4 -4 -24 -6
-44 -5 -28 2 -33 0 -22 -7 12 -9 11 -11 -7 -11 -18 0 -23 6 -23 25 0 23 -4 25
-40 25 -22 0 -40 -4 -40 -10 0 -6 -33 -10 -80 -10 -69 0 -80 -2 -80 -17 0 -22
-42 -63 -64 -63 -9 0 -16 6 -16 13 0 20 -53 35 -109 29 -47 -4 -51 -3 -51 17
0 20 -4 21 -124 21 -99 0 -131 -4 -158 -17 -18 -10 -34 -21 -36 -25 -2 -5 -38
-8 -80 -8 -60 0 -85 5 -110 20 -18 11 -31 24 -28 29 8 12 -19 21 -65 21 -21 0
-39 4 -39 9 0 6 -21 13 -47 17 -49 7 -76 20 -68 34 2 4 0 23 -6 43 l-10 37
-75 0 c-41 0 -84 5 -95 10 -17 10 -19 7 -19 -25 0 -19 -4 -35 -9 -35 -5 0 -26
16 -47 35 -42 40 -100 49 -106 18 -2 -13 -9 -8 -26 20 -12 21 -22 44 -22 52 0
21 -33 35 -83 35 -25 0 -61 7 -80 15 -20 8 -56 15 -81 15 -36 0 -47 5 -60 25
-9 14 -26 25 -38 25 -34 0 -88 23 -88 37 0 8 -14 13 -40 13 -33 0 -40 -4 -40
-19 0 -15 -9 -20 -47 -23 -27 -3 -58 -1 -71 4 -13 4 -44 8 -70 9 -39 1 -42 2
-22 9 22 7 22 8 5 11 -11 1 -24 3 -30 4 -5 2 -20 3 -32 4 -12 1 -24 10 -28 21
-8 25 -22 26 -27 3 -3 -14 -10 -9 -28 19 -24 36 -50 50 -50 28 0 -5 -18 -10
-40 -10 -22 0 -40 5 -40 10 0 6 -7 10 -16 10 -8 0 -22 7 -30 15 -9 9 -34 15
-60 15 -68 0 -133 43 -134 88 0 22 -15 31 -22 11 -5 -15 -58 0 -58 17 0 10
-12 14 -40 14 -40 0 -40 0 -40 40 0 31 -5 43 -25 56 -13 8 -29 13 -35 9 -5 -3
-30 4 -55 16 -37 18 -45 28 -45 50 0 27 -19 42 -42 34 -31 -11 -41 12 -39 87
1 54 -2 78 -12 86 -8 7 -27 32 -43 57 -15 25 -35 45 -44 45 -11 0 -22 15 -30
40 -7 22 -19 40 -26 40 -16 0 -84 68 -84 84 0 7 -11 23 -25 36 -16 15 -25 34
-25 54 0 17 -7 44 -15 60 -8 15 -15 41 -15 57 0 19 -5 29 -15 29 -8 0 -15 5
-15 10 0 6 -12 16 -27 22 -16 7 -37 20 -48 29 -11 10 -38 20 -60 22 -22 2 -61
14 -86 26 -36 16 -75 22 -178 27 l-131 7 0 -285 0 -285 25 -23 c13 -12 22 -27
19 -31 -8 -13 19 -49 36 -49 9 0 21 -5 28 -12 9 -9 7 -14 -6 -24 -10 -8 -12
-13 -4 -14 16 0 16 -37 0 -43 -10 -4 -9 -8 2 -16 13 -9 12 -12 -5 -25 -26 -20
-37 -16 -53 17 -7 15 -20 27 -28 27 -12 0 -14 -517 -14 -3990 l0 -3990 281 0
280 0 -2 70 c-2 72 5 96 21 70 6 -8 10 -10 10 -4 0 8 22 11 64 10 35 0 60 -4
54 -7 -6 -4 -5 -9 3 -12 8 -3 -1 -6 -18 -6 -18 -1 -33 -6 -33 -12 0 -5 5 -7
11 -3 8 4 8 0 0 -15 -7 -11 -16 -21 -21 -21 -6 0 -10 -7 -10 -15 0 -8 5 -15
10 -15 6 0 10 -9 10 -20 0 -20 7 -20 1650 -20 1104 0 1650 3 1650 10 0 6 -9
18 -20 27 -11 10 -20 25 -20 35 0 15 -12 16 -122 13 -114 -3 -168 6 -168 27 0
12 -28 10 -32 -3 -2 -5 -11 -7 -21 -4 -9 4 -15 11 -12 16 8 12 -23 25 -77 33
-27 4 -48 11 -48 17 0 5 -18 9 -40 9 -28 0 -40 -4 -40 -14 0 -12 -6 -12 -40 1
-37 15 -54 33 -30 33 12 0 13 77 1 82 -4 2 0 28 10 58 18 54 18 55 -1 72 -12
10 -20 29 -20 47 0 26 -4 31 -25 31 -17 0 -23 -4 -19 -15 3 -8 0 -17 -8 -20
-9 -4 -12 -19 -10 -50 3 -28 0 -45 -7 -45 -6 0 -11 17 -11 38 0 31 -6 41 -33
59 -17 12 -48 24 -68 28 -44 8 -70 24 -51 32 8 3 9 9 4 16 -5 7 -14 32 -21 57
-12 41 -14 43 -27 25 -14 -19 -15 -19 -30 3 -12 17 -25 22 -61 22 -54 0 -113
34 -113 64 0 16 -2 17 -16 5 -14 -11 -18 -10 -30 6 -8 10 -14 24 -14 31 0 7
-5 14 -12 16 -23 8 4 28 37 28 23 0 35 -5 39 -17 3 -10 3 1 1 24 -3 26 -1 43
5 43 5 0 10 -4 10 -9 0 -5 11 -12 25 -15 28 -7 69 10 60 25 -10 15 5 31 18 20
7 -5 28 -11 47 -13 30 -3 36 -8 45 -40 5 -20 13 -40 18 -44 4 -4 7 -17 7 -28
1 -30 62 -55 122 -51 39 2 51 9 82 43 30 33 36 47 36 83 0 42 2 45 38 61 20 9
39 12 42 8 9 -14 65 -19 100 -9 26 8 54 7 105 -4 85 -18 115 -10 115 30 0 16
-7 41 -15 57 -19 36 -19 70 0 86 21 18 19 57 -4 65 -35 11 -36 69 -1 80 20 6
29 30 36 93 3 25 0 42 -6 42 -5 0 -10 5 -10 10 0 6 4 10 10 10 5 0 22 12 37
27 25 25 28 26 31 9 2 -10 -2 -22 -9 -27 -20 -12 181 0 204 12 11 7 67 8 147
3 114 -6 132 -5 156 11 21 13 24 19 13 26 -12 7 -12 9 0 9 8 0 11 7 8 19 -4
15 5 23 38 37 42 17 43 18 49 77 9 90 8 95 -16 99 -16 2 -24 11 -26 28 -2 20
3 28 25 37 l28 11 -27 1 c-16 1 -28 6 -28 13 0 6 -7 19 -15 28 -28 31 -42 110
-28 153 11 34 11 39 -8 58 -15 15 -18 24 -10 28 22 14 -1 41 -43 52 -81 22
-145 48 -165 68 -12 12 -28 21 -36 21 -8 0 -15 6 -15 14 0 16 -30 26 -80 26
-63 0 -81 10 -78 39 3 25 2 26 -62 29 -58 2 -98 -2 -227 -25 -39 -6 -46 13 -8
23 20 5 23 9 14 20 -8 10 -8 14 0 14 6 0 11 7 11 15 0 20 -17 19 -29 -2 -9
-16 -15 -13 -55 27 l-46 44 0 74 c0 63 -3 75 -18 79 -10 2 -24 19 -32 36 -7
18 -15 35 -18 40 -2 4 4 7 13 7 12 0 15 6 11 20 -3 11 -9 29 -12 40 -3 11 -9
20 -14 20 -8 0 -25 67 -21 83 1 5 -8 11 -19 14 -13 4 -23 17 -27 34 -3 16 -11
33 -19 40 -7 6 -11 16 -8 23 3 7 -11 20 -35 30 -28 13 -40 25 -44 45 -2 14 -6
31 -8 36 -2 6 0 11 4 12 15 4 37 31 47 57 5 14 16 26 25 26 8 0 15 5 15 11 0
13 33 58 78 107 23 24 29 37 21 42 -15 10 45 24 90 21 18 -1 39 3 45 8 15 13
210 35 231 27 8 -3 15 -15 15 -26 0 -11 10 -36 22 -55 22 -32 26 -35 76 -35
44 0 57 4 73 23 19 22 25 42 11 33 -4 -2 -8 3 -8 12 -1 9 -4 25 -9 35 -4 10
-3 17 4 17 6 0 11 -9 11 -20 0 -11 3 -20 8 -20 9 0 8 82 -2 98 -5 8 3 14 23
18 19 4 31 13 31 23 0 9 14 30 30 48 25 28 34 31 67 27 29 -3 33 -2 18 5 -13
7 18 8 97 5 109 -3 119 -6 142 -29 14 -14 30 -25 36 -25 5 0 10 -7 10 -15 0
-8 -7 -15 -15 -15 -19 0 -19 -14 0 -30 8 -7 15 -25 15 -41 0 -19 8 -34 25 -45
14 -9 25 -23 25 -30 0 -17 27 -19 32 -2 3 7 20 1 49 -19 24 -16 68 -43 96 -59
29 -16 53 -32 53 -36 0 -5 9 -8 20 -8 11 0 20 -6 20 -14 0 -17 -46 -56 -66
-56 -7 0 -14 -5 -16 -11 -7 -22 -257 -12 -353 14 -80 21 -205 -8 -205 -49 0
-8 -8 -14 -19 -14 -29 0 -45 -100 -18 -117 6 -4 20 -25 29 -46 45 -96 50 -104
89 -121 21 -10 39 -24 39 -31 0 -17 31 -35 58 -35 15 0 90 -48 138 -89 7 -5
14 -7 17 -4 3 3 19 -4 35 -16 17 -12 32 -21 35 -21 9 0 77 -72 77 -81 0 -5 11
-9 25 -9 14 0 24 -5 23 -11 -2 -6 16 -22 39 -34 23 -13 39 -26 36 -29 -4 -3 3
-6 14 -6 11 0 36 -11 56 -24 19 -13 38 -22 40 -19 3 2 8 -4 11 -14 12 -37 204
-80 281 -63 22 5 54 11 70 14 17 2 50 7 74 11 24 4 54 17 68 29 14 12 38 21
56 21 20 0 31 5 30 12 -2 7 9 15 25 19 49 10 87 28 110 51 13 13 35 23 52 23
31 0 75 44 66 67 -3 7 10 19 32 30 20 9 43 23 50 30 7 7 19 13 27 13 7 0 15 5
17 11 2 6 44 12 105 14 56 2 108 7 115 11 7 5 18 9 23 9 6 0 9 9 7 18 -2 10 2
25 8 32 14 17 -4 55 -26 55 -9 0 -27 9 -41 19 -13 11 -30 18 -38 15 -7 -3 -18
4 -25 15 -6 12 -17 21 -24 21 -19 0 -108 49 -121 67 -7 9 -17 13 -22 10 -6 -4
-16 0 -23 8 -7 8 -20 15 -30 15 -10 0 -23 6 -29 13 -6 8 -37 19 -68 26 -69 15
-133 41 -133 53 0 4 -8 8 -17 8 -9 0 -31 17 -49 37 -26 30 -30 40 -21 55 7 10
17 18 24 18 7 0 17 9 23 20 6 11 17 20 25 20 8 0 15 6 15 14 0 7 18 26 40 41
22 15 40 31 40 36 0 5 7 6 15 3 10 -4 15 0 15 13 0 11 11 30 25 43 14 13 25
27 25 32 0 5 11 26 25 46 14 20 25 43 25 50 0 8 7 30 16 50 9 21 22 52 30 70
8 18 14 38 14 44 0 6 35 46 79 89 66 66 83 77 105 73 18 -3 26 0 26 10 0 10
17 16 58 21 131 14 152 17 152 25 0 5 14 11 31 15 17 4 33 13 36 21 6 15 43
20 43 5 0 -5 21 -3 48 5 51 16 176 23 188 12 4 -4 7 -21 6 -37 -1 -27 3 -30
40 -36 22 -4 49 -16 59 -26 10 -10 23 -19 29 -19 6 0 10 -4 10 -9 0 -4 11 -19
23 -32 13 -13 27 -35 30 -49 4 -14 20 -41 36 -59 17 -19 54 -64 83 -102 29
-37 61 -68 71 -69 9 0 17 -5 17 -11 0 -14 46 -59 75 -74 11 -6 26 -24 35 -40
8 -16 23 -36 33 -43 9 -7 17 -20 17 -28 0 -8 3 -14 8 -14 9 0 42 -74 42 -95 0
-8 7 -15 15 -15 8 0 15 -4 15 -10 0 -5 9 -10 20 -10 11 0 20 -6 20 -14 0 -8
34 -31 76 -52 70 -34 80 -36 140 -31 72 7 146 26 139 37 -2 4 11 22 30 40 19
19 35 30 35 24 0 -5 6 -2 13 7 7 9 31 27 53 42 39 24 44 25 80 12 22 -8 55
-14 75 -15 23 0 39 -6 43 -15 3 -8 11 -14 17 -13 12 3 16 -61 19 -307 2 -131
-5 -175 -26 -175 -8 0 -14 -9 -14 -20 0 -11 -6 -20 -14 -20 -8 0 -22 -10 -31
-22 -8 -13 -23 -23 -33 -23 -25 -1 -110 -46 -117 -63 -8 -23 17 -184 33 -209
8 -13 29 -25 49 -29 19 -4 30 -10 25 -13 -14 -8 77 -67 98 -63 9 1 25 -6 37
-17 11 -11 37 -27 57 -35 20 -8 36 -20 36 -26 0 -13 17 -30 45 -46 15 -8 22
-26 26 -69 4 -31 13 -61 20 -66 11 -7 9 -9 -6 -9 -19 -1 -19 -1 -2 -14 9 -7
17 -18 17 -25 0 -13 26 -13 55 -1 17 7 14 9 -15 10 -57 2 -6 18 60 19 53 1 57
-1 100 -47 95 -100 90 -87 83 -216 -7 -126 -9 -120 70 -181 21 -16 26 -29 27
-66 0 -35 6 -51 25 -69 14 -13 25 -31 25 -40 0 -20 28 -47 54 -51 24 -5 34
-29 12 -29 -9 0 -16 -7 -16 -15 0 -19 21 -19 46 0 30 23 47 18 72 -21 20 -30
23 -44 17 -84 -4 -26 -2 -64 3 -83 7 -25 7 -37 -1 -40 -7 -2 -5 -13 6 -33 8
-16 18 -41 21 -56 3 -15 13 -34 22 -43 15 -15 15 -18 -7 -41 -20 -22 -30 -25
-63 -21 -47 7 -83 -6 -88 -30 -2 -10 0 -40 4 -68 10 -60 2 -105 -18 -105 -9 0
-14 -11 -14 -30 0 -28 -2 -30 -40 -30 -43 0 -55 -16 -17 -23 l22 -4 -22 -8
c-17 -5 -23 -15 -23 -36 0 -22 -5 -29 -19 -29 -28 0 -84 -26 -105 -49 -18 -20
-19 -45 -3 -108 3 -11 9 -41 12 -66 5 -35 17 -55 52 -91 l44 -46 270 0 269 0
0 4500 0 4500 -1742 0 -1743 -1 43 -38z m1482 -571 c0 -5 -4 -10 -10 -10 -5 0
-10 5 -10 10 0 6 5 10 10 10 6 0 10 -4 10 -10z m-100 -80 c0 -5 -4 -10 -10
-10 -5 0 -10 5 -10 10 0 6 5 10 10 10 6 0 10 -4 10 -10z m-6140 -280 c0 -5 -2
-10 -4 -10 -3 0 -8 5 -11 10 -3 6 -1 10 4 10 6 0 11 -4 11 -10z m6495 -160 c3
-5 1 -10 -4 -10 -6 0 -11 5 -11 10 0 6 2 10 4 10 3 0 8 -4 11 -10z m-5719
-1262 c103 -20 145 -67 62 -69 -68 -2 -80 1 -124 30 -37 24 -40 29 -25 39 21
14 18 14 87 0z m2397 -581 c13 -9 16 -20 11 -44 -7 -35 -29 -45 -75 -36 -18 3
-38 0 -52 -10 -16 -10 -28 -12 -40 -5 -25 14 -21 32 14 52 18 10 40 27 50 37
22 22 67 25 92 6z m-2085 -998 c3 -22 -2 -27 -23 -31 -20 -4 -23 -3 -14 8 9
11 6 14 -17 14 -36 0 -59 14 -49 29 4 7 26 11 53 9 42 -3 47 -6 50 -29z m145
-72 c15 -17 16 -23 5 -34 -18 -17 -92 -22 -93 -6 0 7 -16 26 -35 42 l-35 30
70 -6 c54 -4 74 -10 88 -26z m1009 -693 c11 -10 -4 -43 -23 -49 -10 -4 -29 1
-41 9 -12 9 -33 16 -45 16 -25 0 -31 15 -10 23 17 7 112 8 119 1z m-434 -16
c-1 -7 4 -28 11 -47 13 -30 13 -34 -2 -43 -9 -5 -17 -13 -17 -17 0 -5 -16 -34
-36 -64 -20 -31 -36 -59 -36 -64 0 -4 -4 -14 -10 -20 -6 -7 -7 -20 -4 -29 9
-25 -20 -64 -48 -64 -13 0 -26 -6 -29 -14 -4 -9 -14 -12 -26 -9 -25 6 -29 -21
-6 -35 21 -11 9 -40 -18 -44 -12 -2 -27 -15 -34 -29 -13 -27 -81 -59 -132 -62
-22 -2 -28 6 -48 63 -21 60 -22 67 -8 92 9 15 18 42 20 59 7 58 26 88 76 119
37 22 49 36 49 54 0 26 51 66 84 66 9 0 24 13 34 29 13 24 27 31 77 41 33 6
67 15 75 20 22 13 31 12 28 -2z m-448 -77 c0 -4 -11 -6 -25 -3 -14 2 -25 6
-25 8 0 2 11 4 25 4 14 0 25 -4 25 -9z m3554 -306 c-4 -8 -8 -15 -10 -15 -2 0
-4 7 -4 15 0 8 4 15 10 15 5 0 7 -7 4 -15z m-2759 -80 c0 -23 -7 -33 -30 -45
-43 -21 -119 -40 -125 -30 -3 4 -14 9 -25 12 -16 3 -9 12 40 51 52 41 65 47
100 45 37 -3 40 -5 40 -33z m-740 -115 c-3 -5 -18 -10 -33 -10 -21 0 -24 2
-12 10 20 13 53 13 45 0z m-36 -49 c23 -15 5 -44 -21 -35 -31 9 -33 11 -18 29
14 17 20 18 39 6z m-469 -371 c0 -4 -7 -10 -15 -14 -10 -4 -15 1 -15 14 0 13
5 18 15 14 8 -4 15 -10 15 -14z m2129 -22 c-1 -31 -2 -31 -8 -7 -4 17 -12 25
-23 23 -10 -1 -20 2 -24 7 -3 5 9 9 25 9 28 0 31 -3 30 -32z m-2210 -109 c20
-27 20 -31 6 -45 -8 -8 -15 -24 -15 -34 0 -10 -4 -22 -10 -25 -15 -10 -12 -25
4 -19 24 9 39 -62 20 -97 -8 -16 -19 -29 -24 -29 -14 0 -110 -98 -110 -113 0
-7 14 -26 30 -40 20 -18 30 -36 30 -55 -1 -32 -21 -62 -42 -62 -18 0 -43 -27
-52 -57 -4 -13 -12 -23 -17 -23 -5 0 -9 -7 -9 -15 0 -8 -11 -21 -24 -30 -33
-22 -110 -171 -77 -151 14 9 21 -62 9 -94 -5 -17 -19 -35 -30 -41 -10 -6 -18
-18 -17 -27 2 -20 -6 -47 -26 -82 -8 -14 -20 -37 -26 -52 -6 -15 -19 -30 -30
-33 -10 -4 -19 -11 -19 -16 0 -5 -9 -9 -19 -9 -11 0 -27 -7 -36 -16 -9 -9 -18
-14 -21 -12 -2 3 -21 -10 -41 -28 -20 -19 -45 -34 -54 -34 -9 0 -30 -7 -45
-15 -16 -8 -36 -15 -45 -15 -19 0 -52 -34 -42 -43 3 -4 -18 -8 -48 -9 -30 -1
-70 -3 -89 -4 -23 -1 -46 7 -67 22 -17 13 -36 24 -42 24 -6 0 -11 4 -11 8 0 5
-18 16 -40 25 -24 9 -40 22 -40 32 0 9 -9 24 -19 33 -22 19 -40 102 -22 102 6
0 11 -7 11 -16 0 -11 9 -7 29 15 16 17 38 31 50 31 11 0 34 14 50 31 18 18 48
35 77 42 40 10 51 18 68 50 14 27 29 40 49 44 20 4 40 21 60 49 19 26 45 49
68 58 41 17 59 41 59 80 0 15 6 26 14 26 7 0 19 7 26 15 10 13 10 19 -4 33
-26 29 -20 65 12 80 62 27 91 62 103 122 10 50 19 65 80 130 38 41 69 79 69
86 0 6 6 17 14 23 7 6 16 25 20 42 4 19 13 33 26 36 19 5 40 55 40 96 0 18 5
20 60 17 19 0 44 5 54 13 26 19 49 12 75 -24z m1728 -581 c-2 -13 -4 -3 -4 22
0 25 2 35 4 23 2 -13 2 -33 0 -45z m-380 -1644 c-3 -3 -12 -4 -19 -1 -8 3 -5
6 6 6 11 1 17 -2 13 -5z m-257 -94 c0 -15 -7 -20 -29 -20 -17 0 -33 5 -36 10
-11 17 5 30 36 30 22 0 29 -5 29 -20z m-1960 -696 c0 -8 -4 -12 -10 -9 -5 3
-10 10 -10 16 0 5 5 9 10 9 6 0 10 -7 10 -16z"/>
<path d="M6945 8190 c3 -5 8 -10 11 -10 2 0 4 5 4 10 0 6 -5 10 -11 10 -5 0
-7 -4 -4 -10z"/>
<path d="M5600 7330 c0 -6 7 -10 15 -10 8 0 15 2 15 4 0 2 -7 6 -15 10 -8 3
-15 1 -15 -4z"/>
<path d="M2960 7208 c0 -25 3 -29 10 -18 13 20 13 50 0 50 -5 0 -10 -15 -10
-32z"/>
<path d="M6080 6989 c0 -5 5 -7 10 -4 6 3 10 8 10 11 0 2 -4 4 -10 4 -5 0 -10
-5 -10 -11z"/>
<path d="M6360 6901 c0 -12 5 -21 10 -21 6 0 10 6 10 14 0 8 -4 18 -10 21 -5
3 -10 -3 -10 -14z"/>
<path d="M6450 6550 c0 -5 5 -10 10 -10 6 0 10 5 10 10 0 6 -4 10 -10 10 -5 0
-10 -4 -10 -10z"/>
<path d="M3873 3153 c9 -2 25 -2 35 0 9 3 1 5 -18 5 -19 0 -27 -2 -17 -5z"/>
<path d="M3440 216 c0 -9 7 -16 16 -16 17 0 14 22 -4 28 -7 2 -12 -3 -12 -12z"/>
<path d="M8320 210 c0 -5 5 -10 11 -10 5 0 7 5 4 10 -3 6 -8 10 -11 10 -2 0
-4 -4 -4 -10z"/>
<path d="M3786 185 c4 -8 8 -15 10 -15 2 0 4 7 4 15 0 8 -4 15 -10 15 -5 0 -7
-7 -4 -15z"/>
</g>
</svg>
